<svg width="16" height="29" viewBox="0 0 16 29" fill="none" xmlns="http://www.w3.org/2000/svg">
<path d="M12.099 27.1449C11.4418 25.1995 8.52659 17.7874 1.6177 15.0294C4.41496 16.0801 10.237 18.9284 13.9273 25.3965C14.3149 24.9779 14.6772 24.5429 15.0142 24.0914C15.0311 24.075 15.0395 24.0586 15.0563 24.0422C15.3681 23.6236 15.6546 23.1803 15.9242 22.7288C15.9494 22.6878 15.9747 22.6468 16 22.6057C15.1237 21.4894 9.83254 15.0705 2.22433 14.5123C9.83254 13.9624 15.1237 7.54345 16 6.42712C15.9916 6.40249 15.9747 6.38607 15.9579 6.36145C15.6714 5.87716 15.3681 5.41749 15.0395 4.96603C14.694 4.49816 14.3233 4.0467 13.9273 3.61987C10.237 10.0798 4.41496 12.9445 1.6177 13.987C8.52659 11.229 11.4418 3.82508 12.099 1.8715C11.2143 1.15737 10.2454 0.533541 9.21748 -2.96473e-07C8.47604 4.11237 6.69826 7.34645 4.89521 9.71044C4.87836 9.73507 4.85308 9.77611 4.82781 9.80074C4.59189 10.1209 4.34755 10.4164 4.11164 10.6872C4.06951 10.7447 4.01896 10.7857 3.98526 10.835C3.70721 11.1633 3.42917 11.4588 3.15956 11.7379L3.11743 11.7789C1.6851 13.3057 0.454978 14.184 0.101108 14.422C0.0337041 14.4713 3.20039e-07 14.4959 3.20039e-07 14.4959C3.20039e-07 14.4959 0.00842699 14.4959 0.00842699 14.5041C0.00842699 14.5123 0.0252784 14.5123 0.0252784 14.5123C0.067406 14.5369 0.126384 14.578 0.219064 14.6519C0.598212 14.9227 1.42391 15.5384 2.41812 16.5151C2.65403 16.7286 2.91522 16.9748 3.13428 17.2293L3.16798 17.2621C3.45445 17.5576 3.74934 17.8859 4.04423 18.2389C4.06951 18.2635 4.09479 18.2963 4.12006 18.321C4.21274 18.4359 4.31385 18.5426 4.40653 18.6657C4.56661 18.8627 4.73512 19.0679 4.89521 19.2896C6.62243 21.5551 8.33281 24.625 9.1248 28.5075C9.16693 28.6717 9.19221 28.8358 9.22591 29C10.2538 28.4747 11.2227 27.8426 12.1074 27.1285L12.099 27.1449Z" fill="#EBF0EE"/>
</svg>
