<svg width="50" height="50" viewBox="0 0 50 50" fill="none" xmlns="http://www.w3.org/2000/svg">
<circle cx="25" cy="25" r="23" fill="#0A4BA5"/>
<path d="M29.099 37.1449C28.4418 35.1995 25.5266 27.7874 18.6177 25.0294C21.415 26.0801 27.237 28.9284 30.9273 35.3965C31.3149 34.9779 31.6772 34.5429 32.0142 34.0914C32.0311 34.075 32.0395 34.0586 32.0563 34.0422C32.3681 33.6236 32.6546 33.1803 32.9242 32.7288C32.9494 32.6878 32.9747 32.6468 33 32.6057C32.1237 31.4894 26.8325 25.0705 19.2243 24.5123C26.8325 23.9624 32.1237 17.5434 33 16.4271C32.9916 16.4025 32.9747 16.3861 32.9579 16.3614C32.6714 15.8772 32.3681 15.4175 32.0395 14.966C31.694 14.4982 31.3233 14.0467 30.9273 13.6199C27.237 20.0798 21.415 22.9445 18.6177 23.987C25.5266 21.229 28.4418 13.8251 29.099 11.8715C28.2143 11.1574 27.2454 10.5335 26.2175 10C25.476 14.1124 23.6983 17.3464 21.8952 19.7104C21.8784 19.7351 21.8531 19.7761 21.8278 19.8007C21.5919 20.1209 21.3476 20.4164 21.1116 20.6872C21.0695 20.7447 21.019 20.7857 20.9853 20.835C20.7072 21.1633 20.4292 21.4588 20.1596 21.7379L20.1174 21.7789C18.6851 23.3057 17.455 24.184 17.1011 24.422C17.0337 24.4713 17 24.4959 17 24.4959C17 24.4959 17.0084 24.4959 17.0084 24.5041C17.0084 24.5123 17.0253 24.5123 17.0253 24.5123C17.0674 24.5369 17.1264 24.578 17.2191 24.6519C17.5982 24.9227 18.4239 25.5384 19.4181 26.5151C19.654 26.7286 19.9152 26.9748 20.1343 27.2293L20.168 27.2621C20.4545 27.5576 20.7493 27.8859 21.0442 28.2389C21.0695 28.2635 21.0948 28.2963 21.1201 28.321C21.2127 28.4359 21.3138 28.5426 21.4065 28.6657C21.5666 28.8627 21.7351 29.0679 21.8952 29.2896C23.6224 31.5551 25.3328 34.625 26.1248 38.5075C26.1669 38.6717 26.1922 38.8358 26.2259 39C27.2538 38.4747 28.2227 37.8426 29.1074 37.1285L29.099 37.1449Z" fill="#EBF0EE"/>
<path d="M25.0013 0C11.2153 0 0 11.2147 0 25C0 38.7853 11.2153 50 25.0013 50C38.7873 50 50.0025 38.7853 50.0025 25C50.0025 11.2147 38.7847 0 25.0013 0ZM25.0013 49.7487C11.3535 49.7487 0.251294 38.6446 0.251294 25C0.251294 11.3554 11.3535 0.251282 25.0013 0.251282C38.6491 0.251282 49.7512 11.3529 49.7512 25C49.7512 38.6471 38.6491 49.7487 25.0013 49.7487Z" fill="#0A4BA5"/>
</svg>
