<svg width="158" height="162" viewBox="0 0 158 162" fill="none" xmlns="http://www.w3.org/2000/svg">
<g clip-path="url(#clip0_4484_1530)">
<path d="M12.2227 42.2794H38.1642C38.2844 42.2794 38.4046 42.3061 38.5249 42.3061C38.8722 42.3061 39.2195 42.3328 39.5668 42.3328C39.874 42.3595 40.1813 42.3996 40.4885 42.4129C40.8492 42.4397 41.2232 42.4797 41.5839 42.5331C41.7442 42.5598 41.8911 42.5598 42.038 42.5732C42.2651 42.6133 42.4655 42.6533 42.6926 42.6934C43.3872 42.8002 44.0818 42.9338 44.7497 43.1207C45.057 43.1875 45.3642 43.2409 45.6715 43.321C45.7516 43.3477 45.8184 43.3611 45.8985 43.4012C46.2859 43.508 46.6733 43.6282 47.0607 43.7617C47.221 43.8018 47.3813 43.8686 47.5282 43.9086C47.7553 43.9887 47.9557 44.0689 48.1828 44.1757C48.6503 44.336 49.1179 44.5229 49.572 44.7232C49.6522 44.7633 49.719 44.79 49.7724 44.8033C50.1331 44.9636 50.4804 45.1506 50.8544 45.3108C50.9613 45.3776 51.0414 45.4176 51.1216 45.4577C51.322 45.5645 51.5357 45.658 51.7361 45.7649C51.7761 45.7916 51.8028 45.8049 51.8162 45.8049C52.1635 46.0052 52.5108 46.2055 52.8314 46.4192C53.2188 46.6462 53.6195 46.8733 53.9936 47.1136H54.0203C54.381 47.354 54.755 47.6077 55.1023 47.8615C55.1825 47.9282 55.2626 48.0084 55.3428 48.0618C55.8904 48.4491 56.4248 48.8497 56.9324 49.2637C57.0793 49.3838 57.2129 49.4907 57.3598 49.6109C57.5201 49.7311 57.6671 49.878 57.814 49.9981C58.2682 50.3854 58.6689 50.7727 59.0964 51.1733C59.2433 51.2935 59.3769 51.4137 59.4971 51.5339C59.8177 51.8544 60.1116 52.1615 60.4188 52.4687L60.6059 52.6556C60.7261 52.8159 60.873 52.9628 61.0066 53.1097C61.3272 53.4702 61.6611 53.8442 61.9817 54.2314C62.102 54.3917 62.2222 54.5386 62.3424 54.6988C62.4626 54.819 62.5428 54.9659 62.663 55.0861C62.8099 55.2864 62.9702 55.4734 63.1172 55.6737C63.3176 55.9141 63.5046 56.1811 63.7049 56.4482C63.7049 56.4749 63.7317 56.4749 63.7317 56.4883C63.8118 56.5951 63.8786 56.6886 63.932 56.7954C64.1992 57.1426 64.4263 57.5032 64.6667 57.8771C64.827 58.1041 64.9873 58.3312 65.161 58.5715C65.348 58.852 65.5083 59.1458 65.6686 59.4262C65.869 59.7467 66.0693 60.0939 66.2831 60.4411C66.4434 60.7216 66.6037 60.9887 66.7506 61.2557C66.8708 61.4961 66.991 61.7499 67.1113 61.9635C67.3116 62.3508 67.4986 62.7114 67.6857 63.0986C67.7925 63.2989 67.9128 63.4859 67.9929 63.6862C68.1532 64.1002 68.3402 64.434 68.5005 64.8213C68.5406 64.9014 68.5673 64.9682 68.5807 65.0216C68.7009 65.262 68.8078 65.5157 68.9013 65.7695C68.9013 65.7962 68.928 65.8095 68.928 65.8095L68.9547 65.8362C68.9547 65.8362 68.9948 65.9431 69.0215 65.9965C69.1417 66.2769 69.2619 66.6108 69.3821 66.9179C69.5291 67.2384 69.6226 67.5723 69.7295 67.8928C69.8497 68.1999 69.9565 68.4804 70.0501 68.7875V68.8142C70.0501 68.8142 70.1168 68.9745 70.1569 69.0813C70.3974 69.7891 70.6111 70.5102 70.8248 71.2447C70.8515 71.3649 70.905 71.4851 70.9317 71.6053C72.2408 67.185 74.151 62.9918 76.5555 59.1591C76.4352 58.9722 76.2883 58.8119 76.1681 58.625C75.8208 58.1576 75.4601 57.6635 75.1128 57.1961C74.8857 56.929 74.6586 56.6619 74.4449 56.4082C74.2846 56.1811 74.0976 55.9808 73.9106 55.7538C73.6835 55.5134 73.4831 55.2463 73.256 55.006C73.1091 54.819 72.9488 54.6855 72.7885 54.4985C72.4412 54.0845 72.0538 53.7106 71.6931 53.3367C71.3324 52.9494 70.9584 52.5889 70.5977 52.255C70.4508 52.0948 70.3172 51.9479 70.1436 51.8677C69.9031 51.6274 69.676 51.3736 69.4356 51.16C69.2352 50.9997 69.0081 50.7994 68.8077 50.6258C68.1799 50.0916 67.5254 49.5307 66.8575 49.0099C66.3499 48.5959 65.8155 48.1953 65.2678 47.8348C65.0408 47.6745 64.8404 47.5543 64.6133 47.3807C64.0656 46.9934 63.4912 46.6062 62.9035 46.259C62.476 46.0186 62.0485 45.7515 61.6211 45.5111C61.6211 45.5111 61.6122 45.5022 61.5944 45.4844C61.5944 45.4844 61.5142 45.4176 61.4741 45.4043C61.1936 45.244 60.8997 45.0838 60.6192 44.9369C60.5925 44.9369 60.5925 44.9102 60.5791 44.9102C60.1784 44.6698 59.7643 44.4828 59.3502 44.2558C59.043 44.0956 58.7224 43.9353 58.3884 43.7884C57.9877 43.5881 57.5736 43.3744 57.1461 43.2142C56.8789 43.094 56.6118 42.9738 56.3446 42.867C56.3045 42.8403 56.2645 42.8269 56.2244 42.8269C55.65 42.5598 55.0889 42.3328 54.4878 42.1325C53.7531 41.8521 53.0051 41.585 52.2303 41.358C51.4822 41.1176 50.7075 40.9039 49.906 40.6903C49.8392 40.6635 49.759 40.6502 49.6789 40.6502C48.9843 40.4632 48.2763 40.303 47.5416 40.1561C46.7535 40.0092 45.952 39.8489 45.1371 39.7287C44.5627 39.6486 44.0017 39.5685 43.4273 39.5017C42.8529 39.435 42.2919 39.3815 41.6907 39.3415C41.1965 39.3014 40.6889 39.2747 40.208 39.2614C39.8607 39.2346 39.5 39.2346 39.1527 39.2346C38.8321 39.2079 38.5249 39.1946 38.1909 39.1946H0V125.957H12.2227V42.2794Z" fill="#160A00"/>
<path d="M76.5421 113.137C77.4371 111.895 78.252 110.613 78.9866 109.291C79.9484 107.622 80.8034 105.886 81.538 104.096C81.5781 104.016 81.6182 103.909 81.6583 103.829C81.9254 103.135 82.1926 102.44 82.433 101.746C82.5933 101.292 82.7403 100.851 82.8872 100.384C83.0876 99.7293 83.3147 99.0616 83.5017 98.3939C83.6486 97.8063 83.7822 97.2187 83.9158 96.6445C84.1562 95.5628 84.3833 94.4811 84.5436 93.3861C84.6238 92.8519 84.7039 92.3044 84.7707 91.7569C84.8509 91.0624 84.931 90.3547 84.9978 89.6602C84.9978 89.4332 85.0245 89.2062 85.0379 88.9925C85.0512 88.5652 85.0646 88.1379 85.078 87.7105H98.7433V84.6791H85.1715C85.2917 80.152 85.9329 75.7719 87.0817 71.6988C87.1485 71.5386 87.1885 71.3917 87.242 71.2314C87.429 70.537 87.6294 69.8426 87.8564 69.1749C87.8832 69.1081 87.9232 69.028 87.9366 68.9746C88.0835 68.5606 88.2171 68.1867 88.3641 67.7994C88.4442 67.559 88.5244 67.2919 88.6312 67.0248C88.7514 66.7043 88.8717 66.3571 89.0186 66.0233C89.0854 65.9164 89.1255 65.823 89.1655 65.7028C89.2457 65.5425 89.3125 65.3956 89.3659 65.2354C89.5262 64.8882 89.6732 64.5276 89.8335 64.1537C89.8335 64.1537 89.8602 64.0869 89.8735 64.0736C90.0338 63.7264 90.1808 63.4058 90.3678 63.072H90.3945C90.5548 62.7114 90.7418 62.3642 90.9288 62.017C91.049 61.7766 91.1693 61.5096 91.3162 61.2692C91.5032 60.922 91.7036 60.6015 91.8906 60.2676C92.0375 60.0406 92.1578 59.8403 92.278 59.6133C92.4249 59.3862 92.5452 59.1859 92.6921 58.9455C92.7722 58.7853 92.8791 58.625 92.9726 58.4781C93.2398 58.0775 93.4802 57.7036 93.7474 57.3163C93.7875 57.2496 93.8142 57.2095 93.8543 57.1694C94.1214 56.8089 94.3886 56.4349 94.6424 56.0877C94.7893 55.9008 94.9496 55.7272 95.0966 55.5135C95.3236 55.2331 95.5507 54.9393 95.7645 54.6588C95.8446 54.5787 95.8847 54.4986 95.9515 54.4185C95.9916 54.3784 96.0183 54.3517 96.0583 54.2983C96.3255 53.9911 96.5659 53.684 96.8732 53.3768C96.9133 53.3501 96.94 53.3368 96.9533 53.2967C97.3541 52.8427 97.7949 52.402 98.2224 51.9746C98.3292 51.8545 98.4227 51.7343 98.543 51.6141C98.73 51.4538 98.9036 51.2936 99.0906 51.1066C99.438 50.7995 99.7585 50.4923 100.092 50.1852C100.293 50.0249 100.48 49.838 100.68 49.651C100.827 49.5442 100.961 49.464 101.094 49.3439C101.562 48.9566 102.056 48.596 102.537 48.2488C102.684 48.1286 102.804 48.0218 102.951 47.9016C103.232 47.7013 103.526 47.5143 103.806 47.314C103.846 47.2873 103.913 47.274 103.953 47.2339C104.153 47.1137 104.367 46.9935 104.567 46.8733C104.835 46.7131 105.075 46.5528 105.316 46.3792C105.556 46.259 105.81 46.1121 106.05 45.9919C106.411 45.7916 106.798 45.578 107.172 45.4044C107.239 45.3777 107.293 45.3376 107.359 45.2975C107.68 45.1106 108.027 44.9503 108.375 44.8034C108.481 44.7767 108.562 44.7367 108.655 44.6966C109.884 44.1624 111.126 43.7217 112.409 43.3745C112.556 43.3345 112.676 43.2944 112.796 43.2543C112.983 43.2143 113.157 43.1742 113.344 43.1341C113.491 43.0941 113.624 43.054 113.798 43.0273C113.825 43.0006 113.838 43.0006 113.865 42.9873H113.932C115.882 42.5599 117.859 42.3195 119.903 42.3195C130.883 42.3195 140.688 48.823 147.046 58.9188H158.053C149.531 47.0469 135.612 39.2748 119.903 39.2748C119.595 39.2748 119.275 39.3015 118.968 39.3148C118.607 39.3148 118.26 39.3148 117.912 39.3416C117.405 39.3683 116.897 39.3816 116.403 39.4217C115.815 39.4617 115.241 39.5285 114.653 39.5819C114.078 39.6487 113.517 39.7288 112.943 39.8089C112.128 39.9158 111.327 40.0493 110.539 40.2363C109.831 40.3832 109.109 40.5434 108.415 40.7304C108.254 40.7571 108.094 40.7972 107.947 40.8372C107.947 40.8372 107.934 40.8461 107.907 40.8639C107.72 40.904 107.56 40.9708 107.399 41.0108C106.865 41.1577 106.357 41.318 105.85 41.4649C105.102 41.6919 104.34 41.959 103.606 42.2394C103.031 42.4664 102.444 42.6935 101.896 42.9338C101.736 43.0006 101.589 43.054 101.442 43.1208C101.281 43.1876 101.094 43.2677 100.934 43.3211C100.627 43.4413 100.346 43.5882 100.039 43.7351C100.012 43.7618 99.9589 43.7752 99.9322 43.8019C99.8654 43.8286 99.8253 43.8419 99.7719 43.882C99.2376 44.1224 98.73 44.3761 98.2491 44.6298C98.0888 44.7099 97.9285 44.7767 97.7815 44.8702C97.3541 45.0972 96.8999 45.3376 96.4724 45.6047C96.4057 45.6447 96.3656 45.6715 96.3121 45.7249C95.9248 45.8851 95.5641 46.1255 95.1901 46.3525C94.6023 46.6997 94.0279 47.087 93.4802 47.4743C93.2531 47.6345 93.0528 47.7547 92.8257 47.9283C92.278 48.2889 91.7437 48.7029 91.2361 49.1035C90.5682 49.6109 89.9136 50.1852 89.2858 50.7193C89.0987 50.8796 88.8717 51.0666 88.6713 51.2535C88.6446 51.2802 88.6312 51.2936 88.5911 51.3336C88.3641 51.5339 88.1637 51.7476 87.9366 51.9613C87.7763 52.0414 87.6294 52.1883 87.4824 52.3486C87.1217 52.6691 86.7477 53.043 86.387 53.4302C86.0264 53.7908 85.639 54.1781 85.2917 54.5921C85.1314 54.779 84.9711 54.9126 84.8242 55.0995C84.6238 55.3265 84.4368 55.5669 84.2364 55.7939C84.0494 56.0343 83.849 56.2613 83.6486 56.5017C83.4215 56.7688 83.2212 57.0359 82.9941 57.2896C82.6334 57.757 82.2861 58.2511 81.9121 58.7319C81.7919 58.8921 81.6449 59.0791 81.5247 59.2393C80.6431 60.4813 79.8282 61.7633 79.0802 63.0854C75.42 69.4954 73.2694 76.8669 73.0156 84.7058H59.3769V87.7372H72.9221C72.9221 88.0043 72.9221 88.2714 72.8953 88.5251C72.8953 88.8723 72.8686 89.2196 72.8553 89.5401C72.8285 89.8071 72.8152 90.0742 72.7885 90.3279C72.7217 91.1426 72.6683 91.9572 72.548 92.7584C72.548 92.8252 72.548 92.8786 72.5213 92.9454C72.4812 93.3727 72.4144 93.8 72.361 94.2274C72.3343 94.4143 72.3209 94.5879 72.2809 94.7749C72.2007 95.2824 72.1206 95.7898 72.0137 96.2973C71.987 96.4842 71.9469 96.6578 71.9068 96.8448C71.84 97.1119 71.8 97.379 71.7465 97.6194C71.7198 97.6861 71.7198 97.7395 71.7065 97.7796C71.5061 98.7812 71.2523 99.756 70.9985 100.718C66.2563 117.811 53.3657 130.11 38.2577 130.11H0V133.128H38.1642C54.0203 133.128 68.033 125.223 76.5287 113.164L76.5421 113.137Z" fill="#160A00"/>
<path d="M119.822 130.07C104.701 130.07 91.7837 117.771 87.0549 100.651C85.7725 105.084 83.8623 109.291 81.4312 113.137C89.9269 125.196 103.966 133.101 119.822 133.101C135.679 133.101 149.464 125.343 157.987 113.444H146.98C140.608 123.553 130.816 130.07 119.822 130.07Z" fill="#160A00"/>
<path d="M85.038 48.8764C85.6925 48.2621 86.4005 47.6345 87.1753 47.0068C87.2421 46.9401 87.2955 46.9 87.3623 46.8466C87.6027 46.6463 87.8565 46.4459 88.1103 46.2323C88.5378 45.8851 88.992 45.5379 89.4729 45.1906C94.4287 41.5049 101.148 37.8592 109.644 36.1899C110.004 36.0964 110.365 36.043 110.712 35.9762C109.55 33.7861 108.188 31.7296 106.625 29.8333C102.377 31.2355 86.1467 37.4452 80.1088 52.1749C82.4064 46.2056 88.6447 33.7995 102.791 25.9339C101.883 25.1059 100.921 24.3447 99.9323 23.6236C99.8922 23.5969 99.8521 23.5702 99.8121 23.5435C98.8904 22.8758 97.9286 22.2748 96.9401 21.6872C96.8466 21.6338 96.7664 21.5804 96.6729 21.527C94.2284 23.3966 80.189 34.6675 78.9734 50.8795C77.7711 34.6675 63.7184 23.3832 61.2872 21.527C61.2471 21.5537 61.1937 21.5804 61.1536 21.6071C60.0983 22.2214 59.0831 22.8624 58.108 23.5702C57.0927 24.3047 56.1042 25.0926 55.1558 25.9339C69.3021 33.7995 75.5537 46.2056 77.8379 52.1749C71.8134 37.4586 55.5966 31.2355 51.3354 29.8333C49.7725 31.7296 48.3966 33.7861 47.2478 35.9762C56.2378 37.552 63.331 41.358 68.4872 45.1906C68.554 45.2307 68.6342 45.2708 68.6876 45.3375C69.3822 45.845 70.0368 46.3525 70.6245 46.8599C70.7448 46.9401 70.8516 47.0602 70.9451 47.127C71.6531 47.7146 72.3077 48.3022 72.9221 48.8764L73.0156 48.9699C76.3552 52.028 78.2787 54.6454 78.8131 55.3933C78.9199 55.5402 78.9734 55.6203 78.9734 55.6203C78.9734 55.6203 78.9734 55.5936 79.0001 55.5936C79.0268 55.5936 79.0268 55.5535 79.0268 55.5535C79.0936 55.4734 79.1737 55.3265 79.334 55.1395C79.9218 54.3249 81.271 52.5755 83.4083 50.4522C83.8758 49.9447 84.4235 49.3972 84.9712 48.9298L85.038 48.8631V48.8764Z" fill="#F06419"/>
<path d="M78.9866 16.8397C76.8493 16.8397 74.7521 17.0667 72.7216 17.4273L71.3992 26.0141C74.0441 29.0054 76.8359 32.8247 78.9732 37.285C81.1105 32.8247 83.9291 29.0188 86.574 26.0141L85.2382 17.4273C83.2078 17.0667 81.1239 16.8531 78.9732 16.8531L78.9866 16.8397ZM78.9732 26.3613C77.9714 26.3613 77.1565 25.5467 77.1565 24.5451C77.1565 23.5435 77.9714 22.7289 78.9732 22.7289C79.9751 22.7289 80.8033 23.5435 80.8033 24.5451C80.8033 25.5467 79.9884 26.3613 78.9732 26.3613Z" fill="#F06419"/>
<path d="M40.8359 154.415C41.1832 154.001 41.6374 153.507 42.145 152.986C42.6526 152.452 43.227 151.904 43.8281 151.343C44.4426 150.769 45.0437 150.222 45.6181 149.687C46.1925 149.18 46.6868 148.726 47.141 148.312H45.0704C44.456 149.033 43.8148 149.727 43.1469 150.462C42.4522 151.223 41.771 151.918 41.0897 152.612C40.4085 153.293 39.7539 153.907 39.1394 154.441C39.0726 154.508 38.9925 154.562 38.9123 154.588C38.8055 154.628 38.752 154.628 38.6853 154.628V152.532C38.6853 151.757 38.712 150.996 38.7253 150.275C38.752 149.554 38.7921 148.859 38.8723 148.312H36.8018C36.8819 148.913 36.922 149.607 36.9487 150.302C36.9888 151.023 37.0155 151.757 37.0155 152.532V157.633C37.0155 158.394 36.9888 159.156 36.9487 159.863C36.922 160.584 36.9086 161.279 36.8285 161.853H38.8589C38.7788 161.252 38.752 160.544 38.7387 159.85C38.712 159.129 38.6986 158.394 38.6986 157.633V154.922C38.8188 154.949 38.7921 154.936 38.8723 154.962C38.9391 154.962 39.0459 155.056 39.086 155.096C39.2864 155.296 39.6203 155.643 40.0745 156.164C40.5287 156.672 41.0229 157.273 41.5706 157.927C42.1183 158.581 42.6793 159.262 43.2537 159.957C43.8014 160.638 44.3357 161.265 44.8166 161.866H47.3948L40.8493 154.468V154.428L40.8359 154.415Z" fill="#160A00"/>
<path d="M141.369 158.888C140.955 158.288 140.554 157.7 140.154 157.099C139.739 156.525 139.379 156.017 139.072 155.563C139.579 155.443 140.02 155.323 140.327 155.176C140.875 154.882 141.369 154.482 141.783 153.921C142.197 153.346 142.398 152.652 142.398 151.811C142.398 150.769 142.064 149.981 141.342 149.26C140.394 148.299 138.324 148.299 138.324 148.299H133.595C133.675 148.9 133.715 149.594 133.755 150.288C133.782 151.009 133.795 151.744 133.795 152.519V157.62C133.795 158.381 133.768 159.142 133.755 159.85C133.715 160.571 133.688 161.266 133.608 161.84H135.639C135.558 161.239 135.532 160.531 135.518 159.837C135.492 159.115 135.478 158.381 135.478 157.62V155.737H137.589L138.991 158.114L141.155 161.84H143.466L142.558 160.571C142.184 160.064 141.797 159.489 141.369 158.875V158.888ZM138.644 154.749C138.096 154.909 137.469 154.989 136.801 154.989H135.478V149.06H137.535C138.257 149.1 138.444 149.127 138.911 149.26C139.365 149.407 139.713 149.674 140.02 150.061C140.354 150.449 140.514 151.063 140.514 151.824C140.514 152.665 140.354 153.32 140.007 153.787C139.659 154.241 139.205 154.548 138.657 154.735L138.644 154.749Z" fill="#160A00"/>
<path d="M11.0873 151.17C11.0873 151.17 11.0605 151.143 11.0338 151.103C11.0071 151.063 10.967 151.009 10.927 150.969L10.8602 150.876C10.8602 150.876 10.7667 150.742 10.6999 150.689L10.3926 150.355C10.3926 150.355 10.3392 150.288 10.2991 150.262C10.259 150.222 10.2323 150.195 10.1923 150.168C10.1522 150.128 10.0987 150.075 10.0587 150.035C9.93845 149.928 9.80487 149.821 9.68465 149.727C9.6045 149.661 9.52435 149.607 9.4442 149.554L9.25719 149.42C9.25719 149.42 9.15032 149.354 9.08353 149.313C9.0301 149.273 8.96331 149.233 8.93659 149.22L8.74958 149.113C8.74958 149.113 8.7095 149.086 8.68279 149.073C8.65607 149.073 8.62935 149.046 8.60264 149.02C8.56256 148.993 8.52249 148.98 8.48241 148.953L8.40227 148.913C8.40227 148.913 8.32212 148.873 8.2954 148.859L8.18854 148.806H8.14846C8.14846 148.806 8.09503 148.766 8.06831 148.753C8.01488 148.739 7.9748 148.713 7.94809 148.713C7.92137 148.699 7.89466 148.686 7.82787 148.673C7.74772 148.646 7.68093 148.619 7.60078 148.606C7.49391 148.566 7.38705 148.539 7.3069 148.526L7.24011 148.499H7.22675C7.09317 148.459 6.94623 148.432 6.75922 148.405C6.70578 148.405 6.65235 148.392 6.58556 148.379C6.50541 148.379 6.42526 148.352 6.34511 148.339C6.27832 148.339 6.21153 148.339 6.13138 148.325C6.10467 148.325 6.07795 148.325 6.06459 148.325H5.86422C5.77071 148.312 5.67721 148.299 5.5837 148.299H0V160.277H2.05715V149.046H5.77071C5.77071 149.046 5.8375 149.046 5.86422 149.06C5.93101 149.06 5.9978 149.06 6.06459 149.086C6.26496 149.113 6.4119 149.153 6.53213 149.18C6.53213 149.18 6.7325 149.233 6.77257 149.26L6.85272 149.287C6.93287 149.314 6.99966 149.34 7.06645 149.367L7.11988 149.394C7.11988 149.394 7.18668 149.42 7.21339 149.447L7.28018 149.474C7.28018 149.474 7.3069 149.487 7.32026 149.487C7.34697 149.487 7.37369 149.514 7.37369 149.514C7.41376 149.527 7.44048 149.554 7.48055 149.581L7.54735 149.621C7.54735 149.621 7.58742 149.647 7.61414 149.661C7.64085 149.674 7.66757 149.687 7.69428 149.714L7.73436 149.741C7.73436 149.741 7.77443 149.768 7.81451 149.794C7.82787 149.794 7.84122 149.808 7.85458 149.821L7.8813 149.848C7.8813 149.848 7.96145 149.901 8.00152 149.941L8.1351 150.048L8.17518 150.075L8.21525 150.101C8.21525 150.101 8.2954 150.168 8.32212 150.208L8.38891 150.275C8.38891 150.275 8.48241 150.368 8.56256 150.435C8.616 150.489 8.66943 150.542 8.7095 150.596L8.85644 150.769C8.85644 150.769 8.88316 150.809 8.89652 150.836L8.92323 150.876C8.92323 150.876 8.97666 150.943 9.00338 150.983L9.13696 151.183C9.13696 151.183 9.17704 151.237 9.20375 151.277C9.23047 151.317 9.24383 151.343 9.2839 151.41C9.31062 151.45 9.33733 151.49 9.35069 151.53C9.37741 151.57 9.39077 151.61 9.41748 151.65C9.43084 151.691 9.45756 151.717 9.45756 151.731C9.48427 151.784 9.51099 151.837 9.53771 151.904L9.65793 152.171C9.65793 152.171 9.68465 152.225 9.698 152.265L9.77815 152.452C9.77815 152.452 9.80487 152.519 9.81823 152.572C9.83159 152.612 9.84494 152.639 9.8583 152.679V152.719L9.88502 152.746C9.88502 152.746 9.91173 152.839 9.92509 152.879C9.93845 152.932 9.95181 152.973 9.97853 153.026V153.066C10.1655 153.707 10.259 154.388 10.259 155.069C10.259 155.203 10.259 155.35 10.259 155.497V155.523C10.259 155.523 10.259 155.603 10.259 155.643V155.724C10.259 155.724 10.2457 155.817 10.2323 155.884C10.2323 155.964 10.2323 156.044 10.2056 156.111C10.2056 156.138 10.2056 156.178 10.2056 156.204V156.258C10.2056 156.258 10.1789 156.338 10.1789 156.365V156.471C10.1789 156.471 10.1522 156.511 10.1522 156.538V156.592V156.605V156.672C10.0987 156.805 10.072 156.939 10.032 157.086L9.97853 157.273C9.92509 157.446 9.8583 157.606 9.79151 157.78C9.7648 157.833 9.75144 157.9 9.72472 157.954C9.53771 158.394 9.29726 158.808 9.01674 159.196C8.99002 159.236 8.96331 159.276 8.92323 159.316C8.81637 159.463 8.68279 159.61 8.53585 159.77C8.48241 159.823 8.44234 159.877 8.38891 159.917C7.94809 160.331 7.48055 160.638 6.97295 160.825L6.91951 160.852C6.70578 160.932 6.49205 160.998 6.29168 161.038C6.25161 161.038 6.19817 161.052 6.14474 161.065H6.05123C5.87758 161.105 5.71728 161.105 5.57034 161.105H0V161.853H5.54363C5.63713 161.853 5.744 161.853 5.8375 161.853C5.97109 161.853 6.11802 161.853 6.25161 161.826C6.35847 161.826 6.46534 161.8 6.55884 161.786C6.79929 161.76 7.01302 161.706 7.22675 161.653C7.32026 161.626 7.42712 161.599 7.53399 161.559C7.70764 161.506 7.86794 161.452 8.0416 161.386C8.1351 161.346 8.22861 161.306 8.2954 161.279L8.34883 161.252C8.34883 161.252 8.40227 161.225 8.42898 161.212C8.4557 161.212 8.48241 161.185 8.50913 161.172L8.56256 161.145C8.56256 161.145 8.64271 161.105 8.68279 161.092C8.89652 160.985 9.11025 160.852 9.36405 160.678C9.47092 160.611 9.56442 160.531 9.698 160.438C9.71136 160.438 9.72472 160.411 9.73808 160.411C9.81823 160.344 9.89838 160.291 9.95181 160.224L10.0186 160.17C10.1121 160.09 10.2056 159.997 10.2991 159.917C10.3926 159.823 10.4728 159.743 10.5663 159.623C10.6464 159.529 10.7266 159.449 10.78 159.369C10.8067 159.343 10.8201 159.316 10.8602 159.262C10.927 159.182 10.9804 159.102 11.0205 159.049C11.0205 159.049 11.0472 159.022 11.0739 158.982L11.1006 158.929C11.1006 158.929 11.154 158.848 11.1941 158.795C11.2208 158.755 11.2475 158.715 11.2609 158.675C11.3143 158.595 11.3544 158.528 11.3945 158.448L11.4212 158.394C11.4212 158.394 11.4746 158.301 11.5014 158.261C11.5681 158.127 11.6349 158.007 11.6884 157.874C11.7151 157.82 11.7418 157.753 11.7685 157.7L11.7952 157.66C11.8353 157.553 11.8754 157.46 11.9021 157.366C11.9288 157.299 11.9422 157.233 11.9689 157.166L11.9956 157.086L12.0223 156.992C12.0223 156.992 12.0624 156.872 12.0758 156.779C12.0758 156.725 12.1025 156.685 12.1158 156.618C12.1292 156.538 12.1559 156.458 12.1693 156.378V156.311C12.1693 156.311 12.2093 156.191 12.2093 156.151C12.2093 156.084 12.236 156.004 12.236 155.91C12.236 155.844 12.2494 155.777 12.2628 155.724C12.2628 155.657 12.2761 155.59 12.2761 155.523V155.483V155.443C12.2761 155.336 12.2761 155.229 12.2761 155.109C12.2761 153.934 11.9689 152.786 11.3945 151.771C11.301 151.584 11.1808 151.397 11.0472 151.21L11.0873 151.17Z" fill="#160A00"/>
<path d="M76.6356 148.846C78.1184 148.846 79.4943 149.701 80.4293 151.17L80.4828 151.25H82.4865L82.2995 150.996C80.9904 149.167 78.8798 148.085 76.6356 148.085C72.8018 148.085 69.676 151.21 69.676 155.043C69.676 158.875 72.8018 162 76.6356 162C78.8664 162 80.9904 160.905 82.2995 159.089L82.4865 158.835H80.4828L80.4293 158.915C79.4943 160.398 78.1184 161.239 76.6356 161.239C73.9506 161.239 71.7733 158.461 71.7733 155.043C71.7733 151.624 73.9506 148.846 76.6356 148.846Z" fill="#160A00"/>
<path d="M18.1137 150.275C18.1404 149.554 18.1805 148.859 18.2606 148.312H16.0833C16.1634 148.913 16.2035 149.607 16.2302 150.302C16.2703 151.023 16.2703 151.757 16.2703 152.532V157.633C16.2703 158.394 16.2703 159.156 16.2302 159.863C16.2035 160.584 16.1901 161.279 16.11 161.853H18.2473C18.1671 161.252 18.1404 160.544 18.127 159.85C18.087 159.129 18.087 158.394 18.087 157.633V152.532C18.087 151.757 18.087 150.996 18.127 150.275H18.1137Z" fill="#160A00"/>
<path d="M94.5089 157.406C94.0948 156.418 93.6673 155.403 93.2399 154.295C92.8124 153.213 92.3582 152.145 91.9308 151.05C91.5434 150.061 91.156 149.167 90.8087 148.312H90.0205C89.0588 150.542 88.0703 152.772 87.0951 154.976C86.0665 157.246 85.038 159.543 83.9827 161.866H85.3318L87.4424 156.925H92.4784L92.5185 157.046C93.0261 158.394 93.4269 159.489 93.6673 160.304C93.9078 161.105 94.0814 161.613 94.1349 161.866H96.4325C96.2321 161.439 95.9649 160.838 95.631 160.064C95.297 159.289 94.9363 158.408 94.5222 157.419L94.5089 157.406ZM87.7363 156.151L87.7897 156.031L89.9805 150.903H90.0205C90.448 151.891 90.8354 152.812 91.1961 153.667C91.5434 154.535 91.8506 155.309 92.1445 156.031L92.1846 156.151H87.7363Z" fill="#160A00"/>
<path d="M60.0047 157.406C59.5906 156.418 59.1632 155.403 58.7357 154.295C58.3082 153.213 57.8541 152.145 57.4266 151.05C57.0392 150.061 56.6518 149.167 56.3045 148.312H55.5164C54.5546 150.542 53.5661 152.772 52.591 154.976C51.5624 157.246 50.5338 159.543 49.4785 161.866H50.8277L52.9383 156.925H57.9743L58.0144 157.046C58.522 158.394 58.9227 159.489 59.1632 160.304C59.4036 161.105 59.5773 161.613 59.6307 161.866H61.9283C61.7279 161.439 61.4608 160.838 61.1268 160.064C60.7929 159.289 60.4322 158.408 60.0181 157.419L60.0047 157.406ZM53.2321 156.151L53.2856 156.031L55.4763 150.903H55.5164C55.9439 151.891 56.3312 152.812 56.6919 153.667C57.0392 154.535 57.3465 155.309 57.6403 156.031L57.6804 156.151H53.2321Z" fill="#160A00"/>
<path d="M31.8592 157.406C31.4451 156.418 31.0177 155.403 30.5902 154.295C30.1627 153.213 29.7086 152.145 29.2811 151.05C28.8937 150.061 28.5063 149.167 28.159 148.312H27.3709C26.4091 150.542 25.4206 152.772 24.4455 154.976C23.4169 157.246 22.3883 159.543 21.333 161.866H22.6822L24.7928 156.925H29.8288L29.8689 157.046C30.3765 158.394 30.7772 159.489 31.0177 160.304C31.2581 161.105 31.4318 161.613 31.4852 161.866H33.7828C33.5824 161.439 33.3153 160.838 32.9813 160.064C32.6473 159.289 32.2867 158.408 31.8726 157.419L31.8592 157.406ZM25.0866 156.151L25.1401 156.031L27.3308 150.903H27.3709C27.7983 151.891 28.1857 152.812 28.5464 153.667C28.8937 154.535 29.2009 155.309 29.4948 156.031L29.5349 156.151H25.0866Z" fill="#160A00"/>
<path d="M128.666 157.406C128.252 156.418 127.824 155.403 127.397 154.295C126.969 153.213 126.515 152.145 126.087 151.05C125.7 150.061 125.313 149.167 124.965 148.312H124.177C123.215 150.542 122.227 152.772 121.252 154.976C120.223 157.246 119.195 159.543 118.139 161.866H119.489L121.599 156.925H126.635L126.675 157.046C127.183 158.394 127.584 159.489 127.824 160.304C128.064 161.105 128.238 161.613 128.292 161.866H130.589C130.389 161.439 130.122 160.838 129.788 160.064C129.454 159.289 129.093 158.408 128.679 157.419L128.666 157.406ZM121.893 156.151L121.946 156.031L124.137 150.903H124.177C124.605 151.891 124.992 152.812 125.353 153.667C125.7 154.535 126.007 155.309 126.301 156.031L126.341 156.151H121.893Z" fill="#160A00"/>
<path d="M156.09 157.406C155.676 156.418 155.248 155.403 154.821 154.295C154.393 153.213 153.939 152.145 153.512 151.05C153.124 150.061 152.737 149.167 152.389 148.312H151.601C150.64 150.542 149.651 152.772 148.676 154.976C147.647 157.246 146.619 159.543 145.563 161.866H146.913L149.023 156.925H154.059L154.099 157.046C154.607 158.394 155.008 159.489 155.248 160.304C155.489 161.105 155.662 161.613 155.716 161.866H158.013C157.813 161.439 157.546 160.838 157.212 160.064C156.878 159.289 156.517 158.408 156.103 157.419L156.09 157.406ZM149.317 156.151L149.371 156.031L151.561 150.903H151.601C152.029 151.891 152.416 152.812 152.777 153.667C153.124 154.535 153.431 155.309 153.725 156.031L153.765 156.151H149.317Z" fill="#160A00"/>
<path d="M113.304 148.299H112.516L107.386 158.902H107.293L102.858 148.299H102.07C101.909 149.26 101.722 150.288 101.522 151.37C101.295 152.585 101.068 153.787 100.827 155.016C100.6 156.271 100.36 157.46 100.133 158.621C99.8922 159.797 99.6651 160.852 99.4514 161.84H100.761L102.43 151.851H102.524L106.571 161.306H107.373L111.794 151.904H111.874C112.075 153.547 112.289 155.189 112.489 156.805C112.676 158.421 112.863 160.104 113.023 161.826H115.094C114.72 159.596 114.372 157.353 114.052 155.123C113.771 152.973 113.558 150.689 113.29 148.272L113.304 148.299Z" fill="#160A00"/>
<path d="M46.4595 23.0227L43.8814 20.5655L46.1924 18.1217L45.3775 17.3472L43.0532 19.7776L40.9159 17.7478L43.5875 14.9434L42.7727 14.1555L39.1125 17.9882L45.471 24.051L46.4595 23.0227Z" fill="#160A00"/>
<path d="M47.5015 15.7313C47.9957 16.439 48.5968 16.9599 49.3048 17.3071C50.0128 17.6543 50.7475 17.7878 51.5223 17.7211C52.2971 17.6543 53.0317 17.3738 53.7397 16.8797C54.2607 16.5192 54.6882 16.0918 55.0221 15.5844C55.3561 15.0903 55.5832 14.5428 55.7034 13.9685C55.8236 13.3943 55.8236 12.8067 55.7034 12.1924C55.5832 11.5915 55.316 11.0039 54.9152 10.4297C54.4076 9.72188 53.8199 9.18771 53.1119 8.85386C52.4039 8.52 51.6826 8.38646 50.9078 8.43987C50.1464 8.50665 49.4117 8.77373 48.7037 9.26784C48.1827 9.64175 47.7553 10.0691 47.4213 10.5765C47.0874 11.084 46.8603 11.6182 46.7401 12.1924C46.6198 12.7666 46.6198 13.3542 46.7401 13.9552C46.8603 14.5561 47.1275 15.1437 47.5282 15.7179L47.5015 15.7313ZM48.0892 11.4846C48.2896 11.0172 48.6102 10.63 49.0644 10.3095C49.5586 9.96225 50.0796 9.78865 50.6406 9.76194C51.2017 9.73523 51.7494 9.86878 52.2971 10.1492C52.8447 10.4297 53.339 10.8837 53.7664 11.498C54.1538 12.0455 54.3943 12.593 54.4878 13.1406C54.5813 13.6881 54.5412 14.1955 54.3408 14.6629C54.1405 15.1303 53.8199 15.531 53.339 15.8648C52.8715 16.1987 52.3505 16.3723 51.7894 16.399C51.2284 16.4257 50.6807 16.2922 50.133 16.0117C49.5853 15.7179 49.1045 15.2772 48.677 14.6629C48.2896 14.1021 48.0492 13.5545 47.9557 13.007C47.8622 12.4595 47.9156 11.952 48.1026 11.4846H48.0892Z" fill="#160A00"/>
<path d="M59.1631 13.234L60.3787 12.7533L57.6937 6.35663L65.201 10.8436L65.2544 10.8169L65.4147 10.7635L65.7353 10.63L66.283 10.4163L63.0369 2.24353L61.8214 2.72428L64.3861 8.7871L57.2395 4.54046L56.7319 4.74077L55.9304 5.06127L59.1631 13.234Z" fill="#160A00"/>
<path d="M71.4126 9.36134C72.3343 9.2278 73.0824 8.97406 73.6835 8.6135C74.2846 8.25294 74.7388 7.8256 75.0727 7.31814C75.4067 6.82404 75.6204 6.28987 75.7139 5.71564C75.8208 5.14141 75.8208 4.59388 75.7406 4.05971C75.6471 3.40536 75.4334 2.84448 75.1128 2.36373C74.7922 1.88298 74.3915 1.4957 73.9106 1.21527C73.4297 0.934826 72.8553 0.734513 72.2408 0.641034C71.613 0.547554 70.9451 0.547554 70.2505 0.654388L67.4319 1.08172L68.7543 9.76196L71.4126 9.36134ZM70.1837 1.72273C71.0519 1.58918 71.7599 1.6426 72.3343 1.86962C72.9087 2.09664 73.3629 2.44385 73.6701 2.91125C73.9907 3.37865 74.1911 3.91282 74.2846 4.51376C74.3514 4.94109 74.3514 5.36843 74.3113 5.76905C74.2579 6.16968 74.1243 6.55695 73.9106 6.90416C73.6969 7.25137 73.3896 7.55852 72.9755 7.79889C72.5614 8.03927 72.0271 8.21287 71.3725 8.31971L69.9966 8.53338L68.9948 1.90968L70.1703 1.73608L70.1837 1.72273Z" fill="#160A00"/>
<path d="M79.9752 6.02275L83.248 6.20971L84.0628 8.94732L85.6124 9.0408L82.7136 0.0667711L81.4847 0L77.4238 8.57341L78.8665 8.65353L79.9752 6.02275ZM81.8587 1.56244L82.9007 5.06125L80.4294 4.92771L81.8587 1.56244Z" fill="#160A00"/>
<path d="M88.3641 9.72183L89.7934 10.0557L91.5433 2.59068L94.5222 3.29845L94.776 2.20341L90.7418 1.25526L90.3678 1.16178L87.4157 0.480713L87.1619 1.5624L90.114 2.25682L88.3641 9.72183Z" fill="#160A00"/>
<path d="M97.6841 3.34198L94.4641 11.5182L95.8438 12.0612L99.0638 3.88501L97.6841 3.34198Z" fill="#160A00"/>
<path d="M101.615 15.1437C102.163 15.4775 102.724 15.6912 103.312 15.7847C103.9 15.8915 104.487 15.8782 105.062 15.758C105.636 15.6378 106.17 15.3974 106.678 15.0368C107.186 14.6763 107.613 14.2089 107.974 13.6079C108.428 12.8601 108.655 12.0989 108.682 11.3244C108.708 10.5498 108.535 9.81534 108.161 9.14763C107.787 8.47992 107.239 7.91904 106.518 7.47835C105.97 7.1445 105.396 6.93083 104.808 6.83735C104.207 6.74387 103.619 6.74387 103.045 6.86406C102.47 6.98424 101.923 7.22462 101.428 7.58518C100.921 7.94575 100.493 8.41315 100.133 9.01409C99.6917 9.74857 99.4513 10.5098 99.4245 11.2977C99.3978 12.0722 99.5715 12.8067 99.9455 13.4877C100.32 14.1688 100.867 14.7297 101.615 15.1704V15.1437ZM101.602 9.62838C101.949 9.05415 102.363 8.60011 102.818 8.29296C103.285 7.98581 103.766 7.82556 104.274 7.81221C104.781 7.81221 105.275 7.93239 105.743 8.22619C106.251 8.53333 106.638 8.93396 106.878 9.44142C107.132 9.93553 107.239 10.4964 107.199 11.1107C107.159 11.725 106.945 12.3526 106.558 12.9936C106.21 13.5679 105.81 14.0086 105.342 14.3157C104.875 14.6229 104.394 14.7831 103.886 14.7965C103.379 14.8098 102.871 14.6763 102.377 14.3691C101.882 14.062 101.508 13.6747 101.255 13.1672C101.001 12.6731 100.907 12.1123 100.947 11.498C100.987 10.8837 101.201 10.256 101.589 9.61503L101.602 9.62838Z" fill="#160A00"/>
<path d="M107.119 18.6424L108.054 19.5505L112.796 14.5026L111.754 23.1829L111.794 23.2229L112.582 23.9975L118.727 17.721L117.792 16.7996L113.304 21.6071L114.279 13.3542L114.065 13.1539L113.838 12.9268L113.611 12.6998L113.264 12.366L107.119 18.6424Z" fill="#160A00"/>
</g>
<defs>
<clipPath id="clip0_4484_1530">
<rect width="158" height="162" fill="white"/>
</clipPath>
</defs>
</svg>
