<svg width="96" height="83" viewBox="0 0 96 83" fill="none" xmlns="http://www.w3.org/2000/svg">
<path d="M37.3591 22.9353C36.7388 22.2977 35.6573 22.7266 35.6425 23.616L35.5894 26.7992C35.5832 27.1742 35.3677 27.5141 35.0313 27.6797L32.175 29.086C31.3769 29.4789 31.4506 30.64 32.2918 30.9289L35.3029 31.9631C35.6576 32.0849 35.9143 32.3949 35.9679 32.766L36.4226 35.9171C36.5497 36.7974 37.6768 37.0862 38.2115 36.3754L40.1255 33.8313C40.3509 33.5316 40.7251 33.3832 41.0946 33.447L44.232 33.9882C45.1085 34.1394 45.7314 33.1568 45.2207 32.4285L43.3925 29.822C43.1772 29.515 43.1517 29.1134 43.3265 28.7816L44.8107 25.965C45.2254 25.1781 44.4833 24.282 43.6329 24.5428L40.5891 25.476C40.2305 25.5859 39.8407 25.486 39.5792 25.2173L37.3591 22.9353Z" fill="#F06419"/>
<path d="M83.7328 5.27627C83.5866 4.39888 82.4535 4.13478 81.9344 4.85709L78.6695 9.39995C78.4507 9.70446 78.0799 9.86094 77.7091 9.80527L72.1767 8.97481C71.297 8.84277 70.6957 9.83878 71.2223 10.5557L74.5339 15.0646C74.7559 15.3668 74.7901 15.7678 74.6226 16.1033L72.1231 21.1083C71.7257 21.9041 72.4872 22.7838 73.3317 22.5045L78.6433 20.7483C78.9993 20.6306 79.3913 20.7219 79.6586 20.9849L83.6462 24.9087C84.2803 25.5325 85.3522 25.0802 85.3476 24.1907L85.3187 18.5964C85.3167 18.2214 85.5248 17.8769 85.8575 17.7039L90.8214 15.1239C91.6107 14.7137 91.5117 13.5545 90.6643 13.284L85.3349 11.5827C84.9777 11.4687 84.7143 11.1644 84.6526 10.7945L83.7328 5.27627Z" fill="#F06419"/>
<path d="M17.4233 51.7983C17.0817 50.977 15.9183 50.977 15.5767 51.7983L12.3703 59.5075C12.2263 59.8537 11.9006 60.0903 11.5269 60.1202L3.20417 60.7875C2.31751 60.8585 1.95799 61.965 2.63352 62.5437L8.97453 67.9755C9.25932 68.2194 9.38369 68.6022 9.29668 68.9669L7.3594 77.0885C7.15302 77.9537 8.09427 78.6376 8.85337 78.1739L15.9787 73.8217C16.2988 73.6263 16.7012 73.6263 17.0213 73.8217L24.1466 78.1739C24.9057 78.6376 25.847 77.9537 25.6406 77.0885L23.7033 68.9669C23.6163 68.6022 23.7407 68.2194 24.0255 67.9755L30.3665 62.5437C31.042 61.965 30.6825 60.8585 29.7958 60.7875L21.4731 60.1202C21.0994 60.0903 20.7737 59.8537 20.6297 59.5075L17.4233 51.7983Z" fill="#F06419"/>
</svg>
