<svg width="96" height="83" viewBox="0 0 96 83" fill="none" xmlns="http://www.w3.org/2000/svg">
<path d="M58.6409 22.9353C59.2612 22.2977 60.3427 22.7266 60.3575 23.616L60.4106 26.7992C60.4168 27.1742 60.6323 27.5141 60.9687 27.6797L63.825 29.086C64.6231 29.4789 64.5494 30.64 63.7082 30.9289L60.6971 31.9631C60.3424 32.0849 60.0857 32.3949 60.0321 32.766L59.5774 35.9171C59.4503 36.7974 58.3232 37.0862 57.7885 36.3754L55.8745 33.8313C55.6491 33.5316 55.2749 33.3832 54.9054 33.447L51.768 33.9882C50.8915 34.1394 50.2686 33.1568 50.7793 32.4285L52.6075 29.822C52.8228 29.515 52.8483 29.1134 52.6735 28.7816L51.1893 25.965C50.7746 25.1781 51.5167 24.282 52.3671 24.5428L55.4109 25.476C55.7695 25.5859 56.1593 25.486 56.4208 25.2173L58.6409 22.9353Z" fill="#F06419"/>
<path d="M12.2672 5.27615C12.4134 4.39876 13.5465 4.13466 14.0656 4.85697L17.3305 9.39983C17.5493 9.70434 17.9201 9.86082 18.2909 9.80515L23.8233 8.97469C24.703 8.84265 25.3043 9.83866 24.7777 10.5556L21.4661 15.0645C21.2441 15.3667 21.2099 15.7677 21.3774 16.1032L23.8769 21.1082C24.2743 21.904 23.5128 22.7836 22.6683 22.5044L17.3567 20.7482C17.0007 20.6305 16.6087 20.7218 16.3414 20.9848L12.3538 24.9085C11.7197 25.5324 10.6478 25.0801 10.6524 24.1906L10.6813 18.5963C10.6833 18.2213 10.4752 17.8767 10.1425 17.7038L5.17859 15.1238C4.38933 14.7136 4.48829 13.5544 5.33567 13.2839L10.6651 11.5826C11.0223 11.4686 11.2857 11.1643 11.3474 10.7944L12.2672 5.27615Z" fill="#F06419"/>
<path d="M78.5767 51.7982C78.9183 50.9769 80.0817 50.9769 80.4233 51.7982L83.6297 59.5073C83.7737 59.8536 84.0994 60.0901 84.4731 60.1201L92.7958 60.7873C93.6825 60.8584 94.042 61.9649 93.3665 62.5436L87.0255 67.9753C86.7407 68.2193 86.6163 68.6021 86.7033 68.9668L88.6406 77.0884C88.847 77.9536 87.9057 78.6374 87.1466 78.1738L80.0213 73.8216C79.7012 73.6262 79.2988 73.6262 78.9787 73.8216L71.8534 78.1738C71.0943 78.6374 70.153 77.9536 70.3594 77.0884L72.2967 68.9668C72.3837 68.6021 72.2593 68.2193 71.9745 67.9753L65.6335 62.5436C64.958 61.9649 65.3175 60.8584 66.2042 60.7873L74.5269 60.1201C74.9006 60.0901 75.2263 59.8536 75.3703 59.5073L78.5767 51.7982Z" fill="#F06419"/>
</svg>
